<?xml version="1.0" standalone="no"?>
<!DOCTYPE svg PUBLIC "-//W3C//DTD SVG 20010904//EN"
 "http://www.w3.org/TR/2001/REC-SVG-20010904/DTD/svg10.dtd">
<svg version="1.0" xmlns="http://www.w3.org/2000/svg"
 width="512.000000pt" height="512.000000pt" viewBox="0 0 512.000000 512.000000"
 preserveAspectRatio="xMidYMid meet">
<metadata>
Created by potrace 1.14, written by Peter Selinger 2001-2017
</metadata>
<g transform="translate(0.000000,512.000000) scale(0.100000,-0.100000)"
fill="#000000" stroke="none">
<path d="M3128 4729 c-2 -6 -19 -13 -37 -15 -42 -5 -89 -39 -97 -70 -7 -27
-20 -30 -48 -9 -30 23 -67 18 -98 -12 -15 -15 -28 -22 -28 -16 0 6 -9 9 -20 6
-24 -6 -80 -68 -80 -88 0 -18 0 -18 -38 1 -47 23 -82 15 -109 -25 -19 -28 -22
-44 -18 -75 7 -54 -4 -72 -36 -55 -32 17 -57 20 -174 25 -121 5 -135 6 -135
15 0 7 -68 24 -82 21 -5 -1 -8 3 -8 10 0 6 -3 9 -6 5 -4 -3 -13 0 -21 8 -26
27 -33 16 -33 -55 0 -43 4 -70 11 -70 5 0 8 -4 4 -9 -7 -13 29 -104 60 -149
17 -26 21 -38 13 -40 -111 -27 -379 -144 -418 -181 -9 -9 -24 -17 -34 -17 -9
-1 -15 0 -13 3 9 8 -65 69 -111 92 -38 19 -49 21 -97 12 -147 -27 -314 -140
-393 -266 -14 -22 -28 -42 -32 -45 -5 -3 -10 -14 -12 -25 -1 -11 -7 -23 -11
-26 -5 -3 -9 -12 -10 -20 -2 -8 -6 -19 -9 -25 -4 -6 -10 -26 -13 -44 -3 -18
-8 -37 -11 -41 -12 -20 -15 -169 -5 -224 6 -32 25 -88 41 -123 17 -35 30 -66
30 -67 0 -2 -11 -2 -25 1 -27 5 -85 -20 -85 -36 0 -5 -13 -16 -29 -24 -25 -13
-31 -13 -41 -1 -19 23 -67 28 -92 11 -12 -9 -19 -16 -15 -16 5 0 2 -7 -7 -15
-10 -11 -13 -28 -9 -64 5 -46 3 -50 -23 -67 -34 -22 -54 -46 -48 -56 3 -5 0
-8 -6 -8 -7 0 -11 -14 -10 -32 3 -48 2 -50 -30 -87 -18 -20 -30 -45 -30 -61 0
-40 20 -89 40 -100 23 -12 33 -13 26 -2 -3 5 1 9 9 9 10 0 15 -11 15 -29 0
-20 -5 -28 -17 -28 -10 0 -27 -3 -39 -6 -16 -4 -26 2 -42 30 -20 33 -23 35
-47 24 -27 -12 -41 -47 -31 -74 6 -16 50 -16 87 0 13 5 18 0 22 -21 3 -15 9
-41 13 -57 5 -21 3 -31 -9 -37 -18 -11 -15 -40 8 -76 15 -23 15 -26 -2 -38
-10 -7 -21 -11 -25 -9 -5 3 -8 0 -8 -7 0 -7 -3 -10 -6 -6 -3 3 -22 0 -42 -7
-65 -23 -160 -9 -184 28 -5 7 -8 4 -8 -8 0 -31 61 -135 111 -187 45 -47 139
-96 160 -84 4 3 17 -7 28 -22 11 -16 26 -34 31 -40 6 -7 8 -13 4 -13 -3 0 1
-12 11 -26 16 -24 16 -26 -4 -31 -14 -4 -23 -17 -28 -47 -6 -28 -15 -44 -30
-51 -31 -13 -49 -59 -35 -89 6 -14 6 -28 0 -39 -5 -9 -5 -17 -1 -17 4 0 1 -5
-7 -10 -12 -8 -11 -15 8 -55 23 -47 71 -85 109 -85 21 0 27 -9 37 -61 7 -35
56 -109 56 -84 0 4 14 -6 30 -23 17 -18 30 -37 30 -43 0 -23 52 -80 88 -97 23
-11 43 -31 57 -57 65 -127 194 -213 350 -231 27 -4 55 -10 61 -15 6 -5 15 -5
19 -1 5 4 5 2 2 -4 -6 -11 19 -29 36 -26 4 1 7 -3 7 -9 0 -5 5 -7 10 -4 6 3
10 1 10 -5 0 -25 56 3 117 60 l65 61 34 -21 c24 -13 53 -20 88 -20 50 0 54 -2
61 -27 6 -26 18 -39 79 -91 28 -24 69 -28 111 -12 20 8 30 7 40 -4 8 -7 12
-16 9 -19 -9 -8 36 -34 89 -52 53 -18 82 -13 112 19 21 21 22 24 24 54 1 13
10 17 39 17 47 1 87 29 106 75 10 27 21 36 40 38 80 6 158 93 142 156 -5 21
-1 26 32 37 54 18 121 17 132 -1 5 -8 13 -15 17 -16 4 0 34 -13 65 -27 72 -33
98 -38 142 -26 46 13 73 47 136 173 29 58 60 108 69 110 16 5 31 8 106 21 53
9 158 46 167 59 4 6 8 8 8 3 0 -9 80 43 80 53 0 3 11 13 25 20 14 7 24 15 22
17 -2 1 15 23 39 48 41 45 66 89 119 212 20 44 34 64 54 71 14 6 48 18 74 28
97 35 149 91 159 171 3 32 10 40 58 72 88 60 212 213 195 241 -3 5 -1 10 6 10
7 0 9 3 6 7 -4 3 0 15 10 25 9 10 13 18 8 18 -4 0 -3 6 3 13 14 16 49 146 46
172 -1 11 -5 34 -9 50 -3 17 -7 36 -7 43 -1 6 -5 12 -8 12 -4 0 -10 14 -14 31
-7 37 18 99 69 171 39 54 75 136 68 156 -3 6 3 12 11 12 9 0 25 14 35 30 16
27 19 53 12 117 0 7 -12 23 -26 37 -14 14 -25 28 -25 32 0 17 -33 73 -41 68
-5 -3 -9 0 -9 5 0 6 -7 11 -15 11 -12 0 -15 12 -14 53 4 142 -9 227 -34 227
-6 0 -8 3 -4 6 3 4 0 13 -8 21 -8 8 -15 27 -15 42 0 32 -23 57 -41 45 -9 -5
-10 -2 -4 12 4 10 9 39 11 64 2 42 -1 48 -43 88 -24 23 -49 42 -54 42 -5 0
-18 9 -29 20 -11 11 -31 20 -44 20 l-24 0 20 63 c22 71 27 178 9 222 -7 17
-14 56 -15 87 -1 32 -4 59 -6 61 -3 2 -16 -8 -30 -22 -14 -13 -19 -20 -11 -16
10 5 12 4 7 -4 -4 -6 -11 -9 -16 -6 -5 3 -16 -2 -24 -11 -9 -8 -16 -13 -16 -9
0 4 -7 -1 -16 -9 -8 -9 -22 -16 -30 -16 -8 0 -14 -5 -14 -11 0 -5 -4 -8 -9 -5
-5 3 -21 -6 -35 -19 -15 -14 -31 -25 -37 -25 -5 0 -9 -7 -9 -15 0 -8 -4 -14
-9 -12 -5 1 -20 -11 -35 -26 -14 -15 -26 -26 -26 -23 0 4 -8 -2 -19 -11 -10
-10 -18 -22 -17 -28 1 -5 -4 -9 -11 -8 -6 1 -16 -4 -22 -11 -9 -11 -19 -12
-47 -3 -33 10 -35 13 -30 41 7 45 -16 123 -45 150 -34 32 -50 35 -80 20 -26
-13 -27 -13 -42 32 -9 27 -12 57 -8 73 4 14 5 36 3 48 -4 25 -49 73 -68 73 -8
0 -14 5 -14 10 0 13 -33 13 -47 -1 -8 -8 -17 -8 -31 0 -26 14 -89 14 -97 1
-20 -32 -49 6 -47 62 0 16 -4 28 -9 28 -6 0 -7 5 -4 10 6 10 -17 40 -30 40 -4
0 -18 9 -32 20 -29 22 -49 26 -55 9z"/>
<path d="M3862 4458 c2 -15 11 -24 26 -26 18 -3 22 1 22 22 0 21 -5 26 -26 26
-21 0 -25 -4 -22 -22z"/>
<path d="M1606 4264 c-7 -19 10 -44 29 -44 13 0 25 21 25 46 0 20 -46 18 -54
-2z"/>
<path d="M1816 4255 c-9 -25 5 -46 28 -43 15 2 22 11 24 31 3 23 0 27 -21 27
-14 0 -27 -7 -31 -15z"/>
<path d="M4150 1840 c-8 -5 -17 -7 -20 -5 -3 2 -11 -9 -17 -24 -17 -46 14 -73
67 -58 19 4 25 13 26 34 2 33 -34 66 -56 53z"/>
<path d="M3924 1658 c-18 -19 -73 -124 -85 -163 -3 -10 -31 -44 -57 -71 -7 -8
-11 -14 -8 -14 3 0 -18 -22 -47 -50 -52 -49 -164 -122 -196 -126 -38 -6 -106
-26 -117 -35 -35 -29 -17 -84 36 -106 33 -14 126 -9 145 7 8 7 15 9 15 6 0 -4
10 -1 23 6 12 7 24 12 27 13 42 3 268 204 255 225 -3 6 1 10 9 10 9 0 16 9 16
20 0 11 4 20 9 20 10 0 55 99 70 155 21 77 9 110 -44 121 -23 4 -35 0 -51 -18z"/>
<path d="M684 1266 c-9 -24 0 -51 18 -54 20 -4 40 30 32 52 -8 20 -43 21 -50
2z"/>
<path d="M3376 1025 c-6 -17 9 -29 24 -20 14 9 12 22 -4 28 -8 3 -17 -1 -20
-8z"/>
<path d="M2827 917 c4 -6 0 -8 -9 -4 -11 4 -18 -2 -23 -20 -12 -49 53 -77 80
-34 15 25 14 39 -2 52 -18 15 -55 20 -46 6z"/>
<path d="M2636 847 c-36 -26 4 -84 42 -61 23 15 26 38 7 58 -20 19 -26 20 -49
3z"/>
</g>
</svg>
